# xmcd CD database file
#
# Track frame offsets:
#	150
#	25180
#	40467
#	50352
#	63142
#	82905
#	100712
#	117235
#	142737
#	154652
#	171737
#	184707
#
# Disc length: 2682 seconds
#
# Revision: 0
# Processed by: cddbd v1.5.1PL0 Copyright (c) Steve Scherf et al.
# Submitted via: CDex 1.50
#
DISCID=930a780c
DTITLE=Reunion Jazz Band  - Reunion Jazz Band I
DYEAR=1973
DGENRE=Jazz
TTITLE0=Just a closer walk with thee
TTITLE1=The last time
TTITLE2=South
TTITLE3=Savoy blues
TTITLE4=Careless love blues
TTITLE5=Liza
TTITLE6=Reunioun blues
TTITLE7=Fidgety feet
TTITLE8=Canal street blues
TTITLE9=African queen
TTITLE10=Blue and sentimental
TTITLE11=Little fist piano solo
EXTD=YEAR: 1973
EXTT0=
EXTT1=
EXTT2=
EXTT3=
EXTT4=
EXTT5=
EXTT6=
EXTT7=
EXTT8=
EXTT9=
EXTT10=
EXTT11=
PLAYORDER=
